<svg id="visual" viewBox="0 0 900 600" width="900" height="600" xmlns="http://www.w3.org/2000/svg" xmlns:xlink="http://www.w3.org/1999/xlink" version="1.1"><rect x="0" y="0" width="900" height="600" fill="#ffffff"></rect><defs><linearGradient id="grad1_0" x1="33.3%" y1="0%" x2="100%" y2="100%"><stop offset="20%" stop-color="#ffffff" stop-opacity="1"></stop><stop offset="80%" stop-color="#ffffff" stop-opacity="1"></stop></linearGradient></defs><defs><linearGradient id="grad2_0" x1="0%" y1="0%" x2="66.7%" y2="100%"><stop offset="20%" stop-color="#ffffff" stop-opacity="1"></stop><stop offset="80%" stop-color="#ffffff" stop-opacity="1"></stop></linearGradient></defs><g transform="translate(900, 0)"><path d="M0 229C-30.8 224.5 -61.5 220 -85.7 206.9C-109.9 193.9 -127.5 172.4 -153.4 153.4C-179.3 134.5 -213.5 118.3 -224.8 93.1C-236.2 68 -224.6 34 -213 0L0 0Z" fill="#4FACF7"></path></g><g transform="translate(0, 600)"><path d="M0 -243.4C28.5 -228.7 57.1 -214.1 82.3 -198.6C107.5 -183.2 129.3 -166.9 146.4 -146.4C163.5 -125.9 175.9 -101.2 183.9 -76.2C191.8 -51.1 195.4 -25.5 199 0L0 0Z" fill="#4FACF7"></path></g></svg>