<?xml version="1.0" encoding="utf-8"?>
<svg viewBox="0 0 1200 650" style="shape-rendering: crispedges;" xmlns="http://www.w3.org/2000/svg">
  <g transform="matrix(1, 0, 0, 1, -81.206375, 352.70932)">
    <path d="M71.7 -124.1C93.3 -111.6 111.6 -93.3 124.1 -71.7C136.6 -50 143.3 -25 143.3 0C143.3 25 136.6 50 124.1 71.7C111.6 93.3 93.3 111.6 71.7 124.1C50 136.6 25 143.3 0 143.3C-25 143.3 -50 136.6 -71.7 124.1C-93.3 111.6 -111.6 93.3 -124.1 71.7C-136.6 50 -143.3 25 -143.3 0C-143.3 -25 -136.6 -50 -124.1 -71.7C-111.6 -93.3 -93.3 -111.6 -71.7 -124.1C-50 -136.6 -25 -143.3 0 -143.3C25 -143.3 50 -136.6 71.7 -124.1" fill="#e4e0f9"/>
  </g>
  <g transform="matrix(0.926882, 0, 0, 0.900074, 1435.202271, 249.885742)" style="">
    <path d="M -1063.281 359.14 C -1047.937 367.783 -1034.966 380.437 -1026.107 395.408 C -1017.248 410.378 -1012.499 427.665 -1012.499 444.952 C -1012.499 462.239 -1017.248 479.526 -1026.107 494.497 C -1034.966 509.467 -1047.937 522.121 -1063.281 530.765 C -1078.626 539.408 -1096.344 544.041 -1114.063 544.041 C -1131.782 544.041 -1149.501 539.408 -1164.845 530.765 C -1180.19 522.121 -1193.16 509.467 -1202.02 494.497 C -1210.879 479.526 -1215.628 462.239 -1215.628 444.952 C -1215.628 427.665 -1210.879 410.378 -1202.02 395.408 C -1193.16 380.437 -1180.19 367.783 -1164.845 359.14 C -1149.501 350.496 -1131.782 345.863 -1114.063 345.863 C -1096.344 345.863 -1078.626 350.496 -1063.281 359.14" fill="none" stroke="#e4e0f9" stroke-width="6" style=""/>
  </g>
  <g transform="matrix(0.442906, 0, 0, 0.546551, 1145.970215, -40.259365)" style="">
    <path d="M71.7 -124.1C93.3 -111.6 111.6 -93.3 124.1 -71.7C136.6 -50 143.3 -25 143.3 0C143.3 25 136.6 50 124.1 71.7C111.6 93.3 93.3 111.6 71.7 124.1C50 136.6 25 143.3 0 143.3C-25 143.3 -50 136.6 -71.7 124.1C-93.3 111.6 -111.6 93.3 -124.1 71.7C-136.6 50 -143.3 25 -143.3 0C-143.3 -25 -136.6 -50 -124.1 -71.7C-111.6 -93.3 -93.3 -111.6 -71.7 -124.1C-50 -136.6 -25 -143.3 0 -143.3C25 -143.3 50 -136.6 71.7 -124.1" fill="#e4e0f9"/>
  </g>
</svg>